<svg width="120" height="132" viewBox="0 0 165 172" fill="none" xmlns="http://www.w3.org/2000/svg">
<rect x="22.5" y="0.5" width="121" height="171" rx="49.5" fill="white" stroke="#A485F3"/>
<rect x="41" y="41" width="81.9" height="81.9" rx="40.95" fill="url(#paint0_linear_657_4231)"/>
<path d="M104.919 81.6452C104.913 75.4743 102.459 69.5579 98.0959 65.1945C93.7324 60.831 87.816 58.377 81.6452 58.3711C75.4725 58.3711 69.5526 60.8232 65.1879 65.1879C60.8232 69.5526 58.3711 75.4725 58.3711 81.6452C58.3711 87.8178 60.8232 93.7377 65.1879 98.1024C69.5526 102.467 75.4725 104.919 81.6452 104.919C87.816 104.913 93.7324 102.459 98.0959 98.0959C102.459 93.7324 104.913 87.816 104.919 81.6452ZM101.249 79.8548L92.3423 79.8548C91.9842 73.2307 89.6568 67.0989 85.7405 62.3769C89.8495 63.2596 93.5695 65.4308 96.359 68.5744C99.1484 71.7181 100.862 75.67 101.249 79.8548ZM74.551 83.4355L88.7393 83.4355C88.3364 89.8806 85.7629 95.9005 81.6452 100.085C77.5274 95.9005 74.9539 89.8806 74.551 83.4355ZM74.551 79.8548C74.9539 73.4097 77.5274 67.3898 81.6452 63.2049C85.7629 67.3898 88.3364 73.4097 88.7393 79.8548L74.551 79.8548ZM85.7405 100.913C89.6568 96.1914 91.9842 90.0596 92.3423 83.4355L101.249 83.4355C100.862 87.6203 99.1484 91.5722 96.359 94.7159C93.5695 97.8595 89.8495 100.031 85.7405 100.913Z" fill="white"/>
<defs>
<linearGradient id="paint0_linear_657_4231" x1="44.764" y1="43.2671" x2="91.3354" y2="136.918" gradientUnits="userSpaceOnUse">
<stop stop-color="#BFA1F8"/>
<stop offset="1" stop-color="#5938E4"/>
</linearGradient>
</defs>
</svg>
