<svg width="120" height="132" viewBox="0 0 165 172" fill="none" xmlns="http://www.w3.org/2000/svg">
<rect x="21.5" y="0.5" width="121" height="171" rx="49.5" fill="white" stroke="#0BE8AB"/>
<rect x="40" y="42" width="81.9" height="81.9" rx="40.95" fill="url(#paint0_linear_626_3641)"/>
<path d="M104.203 94.5454C103.415 100.895 98.2118 106.099 91.8623 106.886C88.0192 107.364 84.4387 106.313 81.6459 104.261C80.0466 103.091 80.4285 100.608 82.3381 100.036C89.523 97.8634 95.1803 92.1823 97.3763 84.9974C97.9492 83.1116 100.432 82.7297 101.601 84.3051C103.63 87.1218 104.681 90.7023 104.203 94.5454Z" fill="white"/>
<path d="M75.7266 59.3369C65.1998 59.3369 56.6543 67.8824 56.6543 78.4092C56.6543 88.9359 65.1998 97.4815 75.7266 97.4815C86.2533 97.4815 94.7989 88.9359 94.7989 78.4092C94.775 67.8824 86.2533 59.3369 75.7266 59.3369ZM73.4828 75.7357L79.2355 77.7408C81.3122 78.4808 82.3148 79.9369 82.3148 82.1807C82.3148 84.7587 80.2619 86.8831 77.7555 86.8831L77.5407 86.8831L77.5407 87.0025C77.5407 87.9811 76.7291 88.7927 75.7504 88.7927C74.7718 88.7927 73.9602 87.9811 73.9602 87.0025L73.9602 86.8592C71.3106 86.7399 69.1861 84.52 69.1861 81.751C69.1861 80.7723 69.9977 79.9608 70.9764 79.9608C71.9551 79.9608 72.7667 80.7723 72.7667 81.751C72.7667 82.6103 73.3873 83.3026 74.1511 83.3026L77.7317 83.3026C78.2807 83.3026 78.7104 82.8013 78.7104 82.1807C78.7104 81.3452 78.5671 81.2975 78.0181 81.1065L72.2654 79.1014C70.2126 78.3853 69.1861 76.9292 69.1861 74.6616C69.1861 72.0836 71.239 69.9591 73.7454 69.9591L73.9602 69.9591L73.9602 69.8637C73.9602 68.885 74.7718 68.0734 75.7504 68.0734C76.7291 68.0734 77.5407 68.885 77.5407 69.8637L77.5407 70.0069C80.1903 70.1262 82.3148 72.3462 82.3148 75.1151C82.3148 76.0938 81.5032 76.9054 80.5245 76.9054C79.5458 76.9054 78.7342 76.0938 78.7342 75.1151C78.7342 74.2558 78.1136 73.5635 77.3498 73.5635L73.7692 73.5635C73.2202 73.5635 72.7905 74.0648 72.7905 74.6854C72.7667 75.497 72.9099 75.5448 73.4828 75.7357Z" fill="white"/>
<defs>
<linearGradient id="paint0_linear_626_3641" x1="43.764" y1="44.2671" x2="90.3354" y2="137.918" gradientUnits="userSpaceOnUse">
<stop stop-color="#00FFA3"/>
<stop offset="1" stop-color="#5938E4"/>
</linearGradient>
</defs>
</svg>
