<svg width="120" height="132" viewBox="0 0 165 172" fill="none" xmlns="http://www.w3.org/2000/svg">
<rect x="22.5" y="0.5" width="121" height="171" rx="49.5" fill="white" stroke="#F88902"/>
<rect x="41" y="41" width="81.9" height="81.9" rx="40.95" fill="url(#paint0_linear_627_3665)"/>
<path fill-rule="evenodd" clip-rule="evenodd" d="M94.9558 61.9233C86.9562 58.0204 77.5924 58.0204 69.5928 61.9233C64.4595 64.4278 60.9807 69.3904 60.3952 75.0581L60.3037 75.9441C59.9957 78.9263 59.97 81.9308 60.2271 84.9179L60.3131 85.916C60.4538 87.5514 60.535 88.4948 60.693 89.3965C61.551 94.2929 64.1285 98.7248 67.9635 101.903C68.6697 102.489 69.4507 103.029 70.8057 103.966L71.5026 104.447C73.3066 105.695 74.3974 106.45 75.5123 106.984C79.7855 109.033 84.7631 109.033 89.0363 106.984C90.1512 106.449 91.2419 105.695 93.046 104.447L93.7425 103.966C95.0978 103.029 95.8788 102.489 96.5851 101.903C100.42 98.7248 102.998 94.2929 103.856 89.3965C104.014 88.4948 104.095 87.5515 104.236 85.9161L104.321 84.9178C104.579 81.9308 104.553 78.9263 104.245 75.9441L104.153 75.0581C103.568 69.3904 100.089 64.4278 94.9558 61.9233ZM90.5257 77.3213C91.2755 78.0211 91.316 79.1963 90.6162 79.9462L81.7272 89.4701C81.3835 89.8383 80.9051 90.0511 80.4015 90.0598C79.8979 90.0685 79.4124 89.8723 79.0563 89.5161L73.9768 84.4367C73.2516 83.7114 73.2516 82.5355 73.9768 81.8103C74.7021 81.085 75.878 81.085 76.6033 81.8103L80.3234 85.5304L87.9008 77.4118C88.6006 76.662 89.7758 76.6214 90.5257 77.3213Z" fill="white"/>
<defs>
<linearGradient id="paint0_linear_627_3665" x1="44.764" y1="43.2671" x2="91.3354" y2="136.918" gradientUnits="userSpaceOnUse">
<stop stop-color="#FF9900"/>
<stop offset="1" stop-color="#D1310D"/>
</linearGradient>
</defs>
</svg>
