<svg width="120" height="132" viewBox="0 0 165 172" fill="none" xmlns="http://www.w3.org/2000/svg">
<rect x="22.5" y="0.5" width="121" height="171" rx="49.5" fill="white" stroke="#4A3AFF"/>
<rect x="40.999" y="40.999" width="81.9" height="81.9" rx="40.95" fill="url(#paint0_linear_626_3631)"/>
<path d="M74.0764 58.8008C67.8231 58.9037 62.8229 64.0711 62.9258 70.3245C63.0267 76.4585 67.9057 81.344 74.1626 81.456C74.3532 81.4289 74.5441 81.4258 74.6877 81.4473C74.7354 81.4465 74.7593 81.4461 74.807 81.4453C74.8309 81.445 74.8309 81.445 74.8548 81.4446C80.9614 81.1292 85.6771 76.0858 85.6001 69.9515C85.4972 63.6981 80.3297 58.6979 74.0764 58.8008Z" fill="white"/>
<path d="M86.6777 87.6007C79.9456 83.2709 69.0858 83.4495 62.452 87.9993C59.4542 90.0779 57.8286 92.8501 57.8769 95.7859C57.9252 98.7216 59.6407 101.415 62.681 103.37C66.0594 105.559 70.4695 106.609 74.8612 106.536C79.2528 106.464 83.626 105.27 86.9306 102.972C89.9045 100.893 91.5305 98.1449 91.4818 95.1853C91.4097 92.25 89.718 89.5561 86.6777 87.6007Z" fill="white"/>
<path d="M100.517 71.1148C100.975 75.7388 97.7477 79.8505 93.198 80.4745C93.1741 80.4749 93.1741 80.4749 93.1503 80.4753L93.0787 80.4764C92.9355 80.4788 92.7923 80.4811 92.6737 80.5308C90.3605 80.6883 88.2241 79.9833 86.6026 78.6492C89.0248 76.4129 90.3788 73.096 90.0335 69.5205C89.8347 67.59 89.1373 65.8348 88.1101 64.3476C89.0096 63.8792 90.0551 63.5755 91.1276 63.4624C95.799 62.9797 100.033 66.3956 100.517 71.1148Z" fill="white"/>
<path d="M105.653 93.1138C105.5 95.4321 104.054 97.4613 101.594 98.8626C99.2285 100.215 96.2314 100.885 93.2467 100.862C94.9397 99.2824 95.9103 97.3326 96.0675 95.2769C96.2575 92.3134 94.8026 89.4963 91.9489 87.2752C90.3289 86.0365 88.4508 85.0647 86.4098 84.3581C91.6595 82.7438 98.3116 83.661 102.447 86.8876C104.672 88.6177 105.83 90.8189 105.653 93.1138Z" fill="white"/>
<defs>
<linearGradient id="paint0_linear_626_3631" x1="70.3614" y1="73.818" x2="101.978" y2="132.373" gradientUnits="userSpaceOnUse">
<stop offset="0.203125" stop-color="#D76ED9"/>
<stop offset="0.916667" stop-color="#5938E4"/>
</linearGradient>
</defs>
</svg>
