<svg width="120" height="132" viewBox="0 0 165 172" fill="none" xmlns="http://www.w3.org/2000/svg">
<rect x="22.5" y="0.5" width="121" height="171" rx="49.5" fill="white" stroke="#D76ED9"/>
<rect x="41" y="41" width="81.9" height="81.9" rx="40.95" fill="url(#paint0_linear_657_4307)"/>
<path d="M106.516 80.1868L106.516 85.1042C106.516 86.4171 105.466 87.4913 104.129 87.539L99.4503 87.539C96.8723 87.539 94.5091 85.6532 94.2942 83.0752C94.151 81.5713 94.7239 80.1629 95.7265 79.1842C96.6097 78.2771 97.8271 77.752 99.1639 77.752L104.129 77.752C105.466 77.7997 106.516 78.8739 106.516 80.1868Z" fill="white"/>
<path d="M102.864 91.1188L99.4503 91.1188C94.9149 91.1188 91.0955 87.7053 90.7136 83.3608C90.4988 80.8783 91.4058 78.3957 93.22 76.6292C94.7478 75.0538 96.8723 74.1706 99.1639 74.1706L102.864 74.1706C103.556 74.1706 104.129 73.5977 104.057 72.9054C103.532 67.1048 99.689 63.1422 93.9839 62.4738C93.411 62.3784 92.8142 62.3545 92.1936 62.3545L70.7098 62.3545C70.0414 62.3545 69.3969 62.4022 68.7763 62.4977C62.6892 63.2616 58.7744 67.797 58.7744 74.2899L58.7744 90.9995C58.7744 97.5878 64.1215 102.935 70.7098 102.935L92.1936 102.935C98.8774 102.935 103.484 98.7575 104.057 92.384C104.129 91.6917 103.556 91.1188 102.864 91.1188ZM85.0323 77.2738L70.7098 77.2738C69.7311 77.2738 68.9195 76.4622 68.9195 75.4834C68.9195 74.5047 69.7311 73.6931 70.7098 73.6931L85.0323 73.6931C86.011 73.6931 86.8226 74.5047 86.8226 75.4834C86.8226 76.4622 86.011 77.2738 85.0323 77.2738Z" fill="white"/>
<defs>
<linearGradient id="paint0_linear_657_4307" x1="70.3624" y1="73.819" x2="101.979" y2="132.374" gradientUnits="userSpaceOnUse">
<stop offset="0.203125" stop-color="#D76ED9"/>
<stop offset="0.916667" stop-color="#B11ABF"/>
</linearGradient>
</defs>
</svg>
